<svg width="20" height="20" fill="none" xmlns="http://www.w3.org/2000/svg"><g clip-path="url(#clip0_356_206)"><path d="M0 2.526C0 1.886.224 1.36.672.943 1.12.527 1.702.32 2.418.32c.704 0 1.273.205 1.708.614.448.423.672.973.672 1.651 0 .614-.218 1.126-.653 1.535-.447.423-1.036.634-1.765.634h-.02c-.703 0-1.272-.211-1.707-.634C.218 3.697 0 3.166 0 2.526zM.25 19.32V6.5h4.26v12.82H.25zm6.62 0h4.261v-7.158c0-.448.051-.793.154-1.037.179-.435.45-.803.816-1.103.364-.3.821-.451 1.372-.451 1.433 0 2.15.966 2.15 2.898v6.851h4.26v-7.35c0-1.894-.448-3.33-1.344-4.309-.895-.979-2.079-1.468-3.55-1.468-1.65 0-2.937.71-3.858 2.13v.039h-.019l.02-.039V6.5H6.87c.025.41.038 1.683.038 3.82 0 2.136-.013 5.136-.038 9z" fill="#F69382"/></g><defs><clipPath id="clip0_356_206"><path fill="#fff" transform="translate(0 .32)" d="M0 0h19.883v19H0z"/></clipPath></defs></svg>