<svg width="24" height="17" viewBox="0 0 24 17" fill="none" xmlns="http://www.w3.org/2000/svg">
<path d="M22 9.5H1.33333C0.5 9.5 0 9 0 8.33333C0 7.66667 0.5 7.16667 1.16667 7.16667H22C22.6667 7.16667 23.1667 7.66667 23.1667 8.33333C23.1667 9 22.8333 9.5 22 9.5ZM23.3333 1.33333C23.3333 0.5 22.8333 0 22.1667 0H1.33333C0.5 0 0 0.666667 0 1.33333C0 2 0.5 2.5 1.16667 2.5H22C22.8333 2.5 23.3333 2 23.3333 1.33333ZM23.3333 15.3333C23.3333 14.6667 22.8333 14.1667 22.1667 14.1667H1.33333C0.666667 14.1667 0.166667 14.6667 0.166667 15.3333C-1.61429e-07 16 0.666667 16.6667 1.33333 16.6667H22.1667C22.8333 16.6667 23.3333 16.1667 23.3333 15.3333Z" fill="#F69382"/>
</svg>
