<svg width="24" height="24" viewBox="0 0 24 24" fill="none" xmlns="http://www.w3.org/2000/svg">
<g clip-path="url(#clip0_437_32)">
<path fill-rule="evenodd" clip-rule="evenodd" d="M19.8758 21.6H4.12579C3.27859 21.6 2.65219 20.7636 2.97259 19.9944C4.45579 16.4376 7.94059 14.4 12.0002 14.4C16.061 14.4 19.5458 16.4376 21.029 19.9944C21.3494 20.7636 20.723 21.6 19.8758 21.6ZM7.10059 7.19998C7.10059 4.55278 9.29899 2.39998 12.0002 2.39998C14.7026 2.39998 16.8998 4.55278 16.8998 7.19998C16.8998 9.84718 14.7026 12 12.0002 12C9.29899 12 7.10059 9.84718 7.10059 7.19998ZM23.9474 21.1632C23.057 17.1324 20.2706 14.1575 16.6046 12.8075C18.5474 11.2751 19.6802 8.79712 19.2638 6.08392C18.7814 2.93632 16.1078 0.417572 12.8822 0.0503722C8.42779 -0.457228 4.65019 2.93878 4.65019 7.19998C4.65019 9.46798 5.72299 11.4887 7.39699 12.8075C3.72859 14.1575 0.944588 17.1324 0.0529882 21.1632C-0.271012 22.6284 0.934991 24 2.46499 24H21.5354C23.0666 24 24.2714 22.6284 23.9474 21.1632Z" fill="white"/>
</g>
<defs>
<clipPath id="clip0_437_32">
<rect width="24" height="24" fill="white"/>
</clipPath>
</defs>
</svg>
